# xmcd CD database file
#
# Track frame offsets:
#	150
#	15408
#	38263
#	54746
#	72057
#	87810
#	111362
#	134857
#	146763
#	161500
#	175638
#	192742
#	205647
#	224969
#	243175
#	258479
#	277471
#	292205
#
# Disc length: 4030 seconds
#
# Revision: 0
# Processed by: cddbd v1.5.2PL0 Copyright (c) Steve Scherf et al.
# Submitted via: CDex 1.51
#
DISCID=200fbc12
DTITLE=Swiss Dixie Stompers - 50 Years Jubilee
DYEAR=2004
DGENRE=Jazz
TTITLE0=01 Down Home Rag
TTITLE1=02 Snag It
TTITLE2=03 Sensation Rag
TTITLE3=04 A bientôt
TTITLE4=05 Since my best girl turned me down
TTITLE5=06 My honey's lovin' arms
TTITLE6=07 The Last Time
TTITLE7=08 Ory's Creole Trombone
TTITLE8=09 Bye Bye Blues
TTITLE9=10 Buddy's habits
TTITLE10=11 Everybody loves my Baby
TTITLE11=12 I got Rhythm
TTITLE12=13 Ain't she sweet
TTITLE13=14 China Boy
TTITLE14=15 Chicago
TTITLE15=16 Please don't talk about me when I'm gone
TTITLE16=17 Heebie Jeebies
TTITLE17=18 You are my sunshine
EXTD=YEAR: 2004
EXTT0=
EXTT1=
EXTT2=
EXTT3=
EXTT4=
EXTT5=
EXTT6=
EXTT7=
EXTT8=
EXTT9=
EXTT10=
EXTT11=
EXTT12=
EXTT13=
EXTT14=
EXTT15=
EXTT16=
EXTT17=
PLAYORDER=
